<svg width="50" height="50" viewBox="0 0 50 50" fill="none" xmlns="http://www.w3.org/2000/svg">
<path fill-rule="evenodd" clip-rule="evenodd" d="M35.5271 4.16669C40.6083 4.16669 44.7458 8.3021 44.7458 13.3854V36.5917C44.7458 41.6875 40.5979 45.8334 35.5042 45.8334H25.3271C20.2458 45.8334 16.1104 41.6979 16.1104 36.6146V34.6521C16.1104 33.7896 16.8104 33.0896 17.6729 33.0896C18.5354 33.0896 19.2354 33.7896 19.2354 34.6521V36.6146C19.2354 39.9729 21.9687 42.7084 25.3271 42.7084H35.5042C38.8771 42.7084 41.6208 39.9667 41.6208 36.5917V13.3854C41.6208 10.0271 38.8854 7.29169 35.5271 7.29169H25.35C21.9792 7.29169 19.2354 10.0334 19.2354 13.4042V15.3479C19.2354 16.2104 18.5354 16.9104 17.6729 16.9104C16.8104 16.9104 16.1104 16.2104 16.1104 15.3479V13.4042C16.1104 8.31044 20.2563 4.16669 25.35 4.16669H35.5271ZM27.9006 17.8188L34.0026 23.8953C34.0521 23.9448 34.0983 23.9976 34.1408 24.0534L34.0027 23.8938C34.0859 23.9758 34.1587 24.0664 34.2204 24.1634C34.233 24.1877 34.2472 24.2115 34.2608 24.2357C34.2846 24.273 34.3047 24.3126 34.3231 24.353C34.3335 24.3817 34.3455 24.4102 34.3566 24.4391C34.3744 24.4787 34.3881 24.5194 34.4002 24.5607C34.4072 24.5931 34.4156 24.6256 34.4229 24.6584C34.4343 24.6981 34.4416 24.738 34.4474 24.7783C34.4474 24.7966 34.4498 24.8159 34.4518 24.8352C34.4602 24.8902 34.4631 24.945 34.4631 25L34.4479 25.1646L34.4461 25.212C34.4457 25.2155 34.4452 25.219 34.4447 25.2225L34.4631 25C34.4631 25.1157 34.4503 25.2302 34.4254 25.3415C34.4156 25.3745 34.4072 25.4069 34.3979 25.4389C34.3881 25.4806 34.3744 25.5213 34.359 25.5614C34.3455 25.5898 34.3335 25.6184 34.3207 25.6464C34.3047 25.6874 34.2846 25.7271 34.2628 25.7658C34.2472 25.7885 34.233 25.8123 34.2182 25.8356C34.1958 25.8754 34.1693 25.9131 34.1412 25.9497C34.122 25.9713 34.1041 25.9934 34.0856 26.015C34.0606 26.0469 34.0323 26.0771 34.0027 26.1063L27.9006 32.1792C27.5965 32.4834 27.1965 32.6354 26.7985 32.6354C26.3985 32.6354 25.9965 32.4834 25.6923 32.175C25.0819 31.5625 25.086 30.575 25.6965 29.9667L29.1146 26.5625H7.8125C6.95 26.5625 6.25 25.8625 6.25 25C6.25 24.1375 6.95 23.4375 7.8125 23.4375H29.1146L25.6965 20.0313C25.086 19.4229 25.0819 18.4354 25.6923 17.8229C26.3027 17.2104 27.2902 17.2104 27.9006 17.8188Z" fill="#FFFDFE"/>
</svg>
