<svg width="64" height="68" viewBox="0 0 64 68" fill="none" xmlns="http://www.w3.org/2000/svg">
<g clip-path="url(#clip0_135_42)">
<path fill-rule="evenodd" clip-rule="evenodd" d="M48.8434 -0.166628C56.9733 -0.166628 63.5933 6.61544 63.5933 14.9521V53.0104C63.5933 61.3675 56.9566 68.1668 48.8067 68.1668H32.5234C24.3933 68.1668 17.7766 61.3846 17.7766 53.0479V49.8294C17.7766 48.4149 18.8966 47.2669 20.2766 47.2669C21.6566 47.2669 22.7766 48.4149 22.7766 49.8294V53.0479C22.7766 58.5556 27.1499 63.0418 32.5234 63.0418H48.8067C54.2034 63.0418 58.5933 58.5454 58.5933 53.0104V14.9521C58.5933 9.44444 54.2166 4.95837 48.8434 4.95837H32.56C27.1667 4.95837 22.7766 9.45478 22.7766 14.9829V18.1706C22.7766 19.5851 21.6566 20.7331 20.2766 20.7331C18.8966 20.7331 17.7766 19.5851 17.7766 18.1706V14.9829C17.7766 6.62912 24.4101 -0.166628 32.56 -0.166628H48.8434ZM36.641 22.2228L46.4042 32.1883C46.4834 32.2695 46.5573 32.3561 46.6253 32.4476L46.4043 32.1858C46.5374 32.3203 46.6539 32.4689 46.7526 32.628C46.7728 32.6678 46.7955 32.7069 46.8173 32.7466C46.8554 32.8077 46.8875 32.8727 46.917 32.9389C46.9336 32.986 46.9528 33.0327 46.9706 33.0801C46.999 33.1451 47.021 33.2118 47.0403 33.2795C47.0515 33.3327 47.065 33.386 47.0766 33.4398C47.0949 33.5049 47.1066 33.5703 47.1158 33.6364C47.1158 33.6664 47.1197 33.6981 47.1229 33.7297C47.1363 33.8199 47.141 33.9098 47.141 34L47.1166 34.2699L47.1138 34.3477C47.1131 34.3534 47.1123 34.3592 47.1115 34.3649L47.141 34C47.141 34.1897 47.1205 34.3775 47.0806 34.5601C47.065 34.6142 47.0515 34.6673 47.0366 34.7198C47.021 34.7882 46.999 34.8549 46.9744 34.9207C46.9528 34.9673 46.9336 35.0142 46.9131 35.0601C46.8875 35.1273 46.8554 35.1924 46.8205 35.2559C46.7955 35.2931 46.7728 35.3322 46.7491 35.3704C46.7133 35.4357 46.6709 35.4975 46.6259 35.5575C46.5952 35.5929 46.5666 35.6292 46.537 35.6646C46.497 35.7169 46.4517 35.7664 46.4043 35.8143L36.641 45.7739C36.1544 46.2728 35.5144 46.5221 34.8776 46.5221C34.2376 46.5221 33.5944 46.2728 33.1077 45.767C32.131 44.7625 32.1376 43.143 33.1144 42.1454L38.5834 36.5625H4.5C3.12 36.5625 2 35.4145 2 34C2 32.5855 3.12 31.4375 4.5 31.4375H38.5834L33.1144 25.8513C32.1376 24.8536 32.131 23.2341 33.1077 22.2296C34.0843 21.2251 35.6643 21.2251 36.641 22.2228Z" fill="#FFFDFE"/>
</g>
<defs>
<clipPath id="clip0_135_42">
<rect width="64" height="68" fill="white"/>
</clipPath>
</defs>
</svg>
