<svg width="50" height="50" viewBox="0 0 50 50" fill="none" xmlns="http://www.w3.org/2000/svg">
<path fill-rule="evenodd" clip-rule="evenodd" d="M3.125 10.4167C3.125 6.38958 6.38958 3.125 10.4167 3.125H39.5833C43.6104 3.125 46.875 6.38958 46.875 10.4167V39.5833C46.875 43.6104 43.6104 46.875 39.5833 46.875H10.4167C6.38958 46.875 3.125 43.6104 3.125 39.5833V10.4167ZM10.4167 5.20833C7.54019 5.20833 5.20833 7.54019 5.20833 10.4167V39.5833C5.20833 42.4598 7.54019 44.7917 10.4167 44.7917H39.5833C42.4598 44.7917 44.7917 42.4598 44.7917 39.5833V10.4167C44.7917 7.54019 42.4598 5.20833 39.5833 5.20833H10.4167Z" fill="#FFFDFE"/>
<path fill-rule="evenodd" clip-rule="evenodd" d="M3.125 18.75C3.125 18.1747 3.59137 17.7083 4.16667 17.7083H45.8333C46.4085 17.7083 46.875 18.1747 46.875 18.75C46.875 19.3253 46.4085 19.7917 45.8333 19.7917H4.16667C3.59137 19.7917 3.125 19.3253 3.125 18.75Z" fill="#FFFDFE"/>
<path fill-rule="evenodd" clip-rule="evenodd" d="M13.5417 9.375C12.3911 9.375 11.4583 10.3077 11.4583 11.4583C11.4583 12.6089 12.3911 13.5417 13.5417 13.5417C14.6922 13.5417 15.625 12.6089 15.625 11.4583C15.625 10.3077 14.6922 9.375 13.5417 9.375ZM9.375 11.4583C9.375 9.15714 11.2405 7.29166 13.5417 7.29166C15.8429 7.29166 17.7083 9.15714 17.7083 11.4583C17.7083 13.7595 15.8429 15.625 13.5417 15.625C11.2405 15.625 9.375 13.7595 9.375 11.4583Z" fill="#FFFDFE"/>
<path fill-rule="evenodd" clip-rule="evenodd" d="M39.5834 12.5H22.9167V10.4167H39.5834V12.5Z" fill="#FFFDFE"/>
</svg>
