<svg width="50" height="50" viewBox="0 0 50 50" fill="none" xmlns="http://www.w3.org/2000/svg">
<path d="M25 34.375C23.1458 34.375 21.3332 33.8252 19.7915 32.795C18.2498 31.7649 17.0482 30.3007 16.3386 28.5877C15.6291 26.8746 15.4434 24.9896 15.8051 23.171C16.1669 21.3525 17.0598 19.682 18.3709 18.3709C19.682 17.0598 21.3525 16.1669 23.171 15.8051C24.9896 15.4434 26.8746 15.6291 28.5877 16.3386C30.3007 17.0482 31.7649 18.2498 32.795 19.7915C33.8252 21.3332 34.375 23.1458 34.375 25C34.375 27.4864 33.3873 29.871 31.6291 31.6291C29.871 33.3873 27.4864 34.375 25 34.375ZM25 18.75C23.7639 18.75 22.5555 19.1166 21.5277 19.8033C20.4999 20.4901 19.6988 21.4662 19.2258 22.6082C18.7527 23.7503 18.6289 25.0069 18.8701 26.2193C19.1113 27.4317 19.7065 28.5453 20.5806 29.4194C21.4547 30.2935 22.5683 30.8888 23.7807 31.1299C24.9931 31.3711 26.2497 31.2473 27.3918 30.7743C28.5338 30.3012 29.5099 29.5001 30.1967 28.4723C30.8834 27.4445 31.25 26.2361 31.25 25C31.25 23.3424 30.5915 21.7527 29.4194 20.5806C28.2473 19.4085 26.6576 18.75 25 18.75Z" fill="#FFFDFE"/>
<path d="M32.8125 48.4375H17.1875C15.5299 48.4375 13.9402 47.779 12.7681 46.6069C11.596 45.4348 10.9375 43.8451 10.9375 42.1875V38.2031C10.9403 37.8929 11.0354 37.5904 11.2107 37.3344C11.386 37.0784 11.6336 36.8804 11.9219 36.7656L17.6094 34.4844C17.8022 34.3989 18.0103 34.3533 18.2211 34.3504C18.432 34.3475 18.6413 34.3873 18.8363 34.4675C19.0314 34.5476 19.2082 34.6664 19.3562 34.8167C19.5041 34.9669 19.6201 35.1456 19.6972 35.3419C19.7742 35.5382 19.8107 35.7481 19.8045 35.9589C19.7983 36.1697 19.7494 36.3771 19.6609 36.5685C19.5724 36.7599 19.4461 36.9314 19.2895 37.0727C19.133 37.214 18.9495 37.3222 18.75 37.3906L14.0625 39.2656V42.1875C14.0625 43.0163 14.3917 43.8112 14.9778 44.3972C15.5638 44.9833 16.3587 45.3125 17.1875 45.3125H32.8125C33.6413 45.3125 34.4362 44.9833 35.0222 44.3972C35.6083 43.8112 35.9375 43.0163 35.9375 42.1875V39.2656L31.25 37.3906C30.8646 37.2373 30.5559 36.9371 30.3918 36.5562C30.2277 36.1753 30.2217 35.7448 30.375 35.3594C30.5283 34.974 30.8285 34.6653 31.2094 34.5012C31.5903 34.3371 32.0209 34.331 32.4062 34.4844L38.0937 36.7656C38.382 36.8804 38.6296 37.0784 38.8049 37.3344C38.9802 37.5904 39.0753 37.8929 39.0781 38.2031V42.1875C39.0781 43.0096 38.916 43.8236 38.6009 44.5829C38.2858 45.3422 37.824 46.0319 37.242 46.6124C36.66 47.193 35.9692 47.6531 35.2091 47.9662C34.449 48.2794 33.6346 48.4396 32.8125 48.4375Z" fill="#FFFDFE"/>
<path d="M14.0625 17.1875C12.5173 17.1875 11.0069 16.7293 9.72211 15.8709C8.43735 15.0124 7.436 13.7923 6.84469 12.3647C6.25339 10.9372 6.09867 9.36634 6.40012 7.85086C6.70157 6.33538 7.44563 4.94333 8.53823 3.85073C9.63083 2.75813 11.0229 2.01407 12.5384 1.71262C14.0538 1.41117 15.6247 1.56589 17.0522 2.15719C18.4798 2.7485 19.6999 3.74985 20.5584 5.03461C21.4168 6.31937 21.875 7.82984 21.875 9.375C21.875 10.401 21.6729 11.4169 21.2803 12.3647C20.8877 13.3126 20.3122 14.1738 19.5868 14.8993C18.8613 15.6247 18.0001 16.2002 17.0522 16.5928C16.1044 16.9854 15.0885 17.1875 14.0625 17.1875ZM14.0625 4.6875C13.1354 4.6875 12.2291 4.96242 11.4583 5.47749C10.6874 5.99256 10.0866 6.72465 9.73182 7.58117C9.37703 8.4377 9.2842 9.3802 9.46507 10.2895C9.64594 11.1988 10.0924 12.034 10.7479 12.6896C11.4035 13.3451 12.2387 13.7916 13.148 13.9724C14.0573 14.1533 14.9998 14.0605 15.8563 13.7057C16.7129 13.3509 17.4449 12.7501 17.96 11.9792C18.4751 11.2084 18.75 10.3021 18.75 9.375C18.75 8.1318 18.2561 6.93952 17.3771 6.06044C16.498 5.18136 15.3057 4.6875 14.0625 4.6875Z" fill="#FFFDFE"/>
<path d="M12.5 30.2969H7.8125C6.1549 30.2969 4.56519 29.6384 3.39308 28.4663C2.22098 27.2942 1.5625 25.7045 1.5625 24.0469V21.3125C1.5622 20.9996 1.65587 20.6938 1.83138 20.4347C2.00689 20.1756 2.25615 19.9752 2.54688 19.8594L7.53125 17.9063C7.91084 17.7556 8.33435 17.7595 8.71108 17.9172C9.08781 18.0749 9.38782 18.3738 9.54688 18.75C9.62299 18.9408 9.66073 19.1448 9.65793 19.3502C9.65514 19.5556 9.61187 19.7584 9.5306 19.9471C9.44933 20.1357 9.33165 20.3065 9.1843 20.4497C9.03695 20.5928 8.86282 20.7055 8.67188 20.7813L4.6875 22.375V24.0469C4.6875 24.8757 5.01674 25.6705 5.60279 26.2566C6.18884 26.8426 6.9837 27.1719 7.8125 27.1719H12.5C12.9144 27.1719 13.3118 27.3365 13.6049 27.6295C13.8979 27.9226 14.0625 28.32 14.0625 28.7344C14.0625 29.1488 13.8979 29.5462 13.6049 29.8392C13.3118 30.1323 12.9144 30.2969 12.5 30.2969Z" fill="#FFFDFE"/>
<path d="M35.9375 17.1875C34.3923 17.1875 32.8819 16.7293 31.5971 15.8709C30.3124 15.0124 29.311 13.7923 28.7197 12.3647C28.1284 10.9372 27.9737 9.36634 28.2751 7.85086C28.5766 6.33538 29.3206 4.94333 30.4132 3.85073C31.5058 2.75813 32.8979 2.01407 34.4134 1.71262C35.9288 1.41117 37.4997 1.56589 38.9272 2.15719C40.3548 2.7485 41.5749 3.74985 42.4334 5.03461C43.2918 6.31937 43.75 7.82984 43.75 9.375C43.75 11.447 42.9269 13.4341 41.4618 14.8993C39.9966 16.3644 38.0095 17.1875 35.9375 17.1875ZM35.9375 4.6875C35.0104 4.6875 34.1041 4.96242 33.3333 5.47749C32.5624 5.99256 31.9616 6.72465 31.6068 7.58117C31.252 8.4377 31.1592 9.3802 31.3401 10.2895C31.5209 11.1988 31.9674 12.034 32.6229 12.6896C33.2785 13.3451 34.1137 13.7916 35.023 13.9724C35.9323 14.1533 36.8748 14.0605 37.7313 13.7057C38.5879 13.3509 39.32 12.7501 39.835 11.9792C40.3501 11.2084 40.625 10.3021 40.625 9.375C40.625 8.1318 40.1311 6.93952 39.2521 6.06044C38.373 5.18136 37.1807 4.6875 35.9375 4.6875Z" fill="#FFFDFE"/>
<path d="M42.1875 30.2969H37.5C37.0856 30.2969 36.6882 30.1323 36.3951 29.8392C36.1021 29.5462 35.9375 29.1488 35.9375 28.7344C35.9375 28.32 36.1021 27.9226 36.3951 27.6295C36.6882 27.3365 37.0856 27.1719 37.5 27.1719H42.1875C43.0163 27.1719 43.8112 26.8426 44.3972 26.2566C44.9833 25.6705 45.3125 24.8757 45.3125 24.0469V22.375L41.3281 20.8125C41.1372 20.7367 40.9631 20.6241 40.8157 20.4809C40.6684 20.3378 40.5507 20.167 40.4694 19.9783C40.3881 19.7897 40.3449 19.5868 40.3421 19.3814C40.3393 19.176 40.377 18.9721 40.4531 18.7813C40.6032 18.3966 40.8995 18.087 41.2772 17.9201C41.6549 17.7532 42.0833 17.7426 42.4688 17.8906L47.4531 19.8438C47.7439 19.9595 47.9931 20.16 48.1686 20.419C48.3441 20.6781 48.4378 20.9839 48.4375 21.2969V24.0313C48.4396 24.8533 48.2794 25.6677 47.9662 26.4278C47.6531 27.1879 47.193 27.8788 46.6125 28.4608C46.0319 29.0428 45.3422 29.5046 44.5829 29.8196C43.8236 30.1347 43.0096 30.2969 42.1875 30.2969Z" fill="#FFFDFE"/>
</svg>
