<svg width="156" height="156" viewBox="0 0 156 156" fill="none" xmlns="http://www.w3.org/2000/svg">
<g clip-path="url(#clip0_135_35)">
<path d="M78 109.125C71.8441 109.125 65.8263 107.3 60.7078 103.879C55.5894 100.459 51.6 95.5983 49.2442 89.9112C46.8886 84.2237 46.2721 77.9655 47.473 71.9277C48.6741 65.8903 51.6386 60.3442 55.9914 55.9914C60.3443 51.6385 65.8903 48.6741 71.9277 47.4729C77.9655 46.2721 84.2237 46.8886 89.9112 49.2441C95.5984 51.6 100.459 55.5893 103.879 60.7078C107.3 65.8262 109.125 71.8441 109.125 78C109.125 86.2548 105.846 94.1717 100.009 100.009C94.1718 105.846 86.2549 109.125 78 109.125ZM78 57.25C73.8962 57.25 69.8843 58.4671 66.472 60.747C63.0597 63.0271 60.4 66.2678 58.8297 70.0592C57.259 73.851 56.848 78.0229 57.6488 82.0481C58.4495 86.0732 60.4256 89.7704 63.3276 92.6724C66.2296 95.5744 69.9268 97.5508 73.952 98.3513C77.9771 99.152 82.149 98.741 85.9408 97.1707C89.7322 95.6 92.9729 92.9403 95.2531 89.528C97.5329 86.1157 98.75 82.1038 98.75 78C98.75 72.4968 96.5638 67.219 92.6724 63.3276C88.7811 59.4362 83.5033 57.25 78 57.25Z" fill="#FFFDFE"/>
<path d="M103.938 155.812H52.0625C46.5593 155.812 41.2815 153.626 37.3901 149.735C33.4987 145.844 31.3125 140.566 31.3125 135.062V121.834C31.3218 120.804 31.6375 119.8 32.2195 118.95C32.8015 118.1 33.6236 117.443 34.5807 117.062L53.4632 109.488C54.1033 109.204 54.7942 109.053 55.4941 109.043C56.1942 109.034 56.8891 109.166 57.5365 109.432C58.1842 109.698 58.7712 110.092 59.2626 110.591C59.7536 111.09 60.1387 111.683 60.3947 112.335C60.6503 112.987 60.7715 113.684 60.7509 114.384C60.7304 115.083 60.568 115.772 60.2742 116.407C59.9804 117.043 59.5611 117.612 59.0411 118.081C58.5216 118.55 57.9123 118.91 57.25 119.137L41.6875 125.362V135.062C41.6875 137.814 42.7804 140.453 44.7263 142.399C46.6718 144.345 49.3109 145.437 52.0625 145.437H103.938C106.689 145.437 109.328 144.345 111.274 142.399C113.22 140.453 114.313 137.814 114.313 135.062V125.362L98.75 119.137C97.4705 118.628 96.4456 117.631 95.9008 116.367C95.356 115.102 95.336 113.673 95.845 112.393C96.354 111.114 97.3506 110.089 98.6152 109.544C99.8798 108.999 101.309 108.979 102.589 109.488L121.471 117.062C122.428 117.443 123.25 118.1 123.832 118.95C124.414 119.8 124.73 120.804 124.739 121.834V135.062C124.739 137.792 124.201 140.494 123.155 143.015C122.109 145.536 120.576 147.826 118.643 149.753C116.711 151.681 114.418 153.208 111.894 154.248C109.371 155.288 106.667 155.819 103.938 155.812Z" fill="#FFFDFE"/>
<path d="M41.6875 52.0625C36.5574 52.0625 31.5429 50.5413 27.2774 47.6914C23.012 44.8412 19.6875 40.7904 17.7244 36.0508C15.7613 31.3115 15.2476 26.0962 16.2484 21.0649C17.2492 16.0335 19.7195 11.4119 23.3469 7.78442C26.9744 4.15699 31.596 1.68671 36.6275 0.685896C41.6586 -0.314918 46.874 0.198753 51.6133 2.16187C56.3529 4.12502 60.4037 7.4495 63.2539 11.7149C66.1038 15.9803 67.625 20.9951 67.625 26.125C67.625 29.5313 66.954 32.9041 65.6506 36.0508C64.3472 39.1978 62.4365 42.057 60.0282 44.4657C57.6195 46.874 54.7603 48.7847 51.6133 50.0881C48.4666 51.3915 45.0938 52.0625 41.6875 52.0625ZM41.6875 10.5625C38.6095 10.5625 35.6006 11.4752 33.0416 13.1853C30.4822 14.8953 28.4875 17.3258 27.3096 20.1695C26.1317 23.0132 25.8235 26.1423 26.424 29.1611C27.0245 32.18 28.5068 34.9529 30.683 37.1295C32.8596 39.3057 35.6325 40.7881 38.6514 41.3884C41.6702 41.989 44.7993 41.6809 47.6429 40.5029C50.4868 39.325 52.9171 37.3303 54.6272 34.7709C56.3373 32.2119 57.25 29.203 57.25 26.125C57.25 21.9976 55.6102 18.0392 52.692 15.1207C49.7734 12.2021 45.8149 10.5625 41.6875 10.5625Z" fill="#FFFDFE"/>
<path d="M36.5 95.5857H20.9375C15.4343 95.5857 10.1564 93.3995 6.26503 89.5081C2.37366 85.6167 0.187502 80.3389 0.187502 74.8357V65.7575C0.186506 64.7187 0.497491 63.7034 1.08018 62.8432C1.66288 61.983 2.49042 61.3177 3.45564 60.9332L20.0038 54.4489C21.264 53.9486 22.67 53.9615 23.9208 54.4851C25.1715 55.0087 26.1676 56.001 26.6956 57.25C26.9483 57.8835 27.0736 58.5607 27.0643 59.2427C27.0551 59.9246 26.9114 60.5979 26.6416 61.2244C26.3718 61.8505 25.9811 62.4176 25.4919 62.893C25.0027 63.3681 24.4246 63.7423 23.7906 63.9939L10.5625 69.285V74.8357C10.5625 77.5873 11.6556 80.2261 13.6013 82.1719C15.547 84.1174 18.1859 85.2107 20.9375 85.2107H36.5C37.8758 85.2107 39.1952 85.7572 40.1683 86.7299C41.141 87.703 41.6875 89.0224 41.6875 90.3982C41.6875 91.774 41.141 93.0934 40.1683 94.0661C39.1952 95.0392 37.8758 95.5857 36.5 95.5857Z" fill="#FFFDFE"/>
<path d="M114.312 52.0625C109.182 52.0625 104.168 50.5413 99.9023 47.6914C95.6371 44.8412 92.3125 40.7904 90.3494 36.0508C88.3863 31.3115 87.8726 26.0962 88.8733 21.0649C89.8743 16.0335 92.3444 11.4119 95.9718 7.78442C99.5992 4.15699 104.221 1.68671 109.252 0.685896C114.284 -0.314918 119.499 0.198753 124.238 2.16187C128.978 4.12502 133.029 7.4495 135.879 11.7149C138.729 15.9803 140.25 20.9951 140.25 26.125C140.25 33.004 137.517 39.6012 132.653 44.4657C127.789 49.3298 121.192 52.0625 114.312 52.0625ZM114.312 10.5625C111.234 10.5625 108.226 11.4752 105.667 13.1853C103.107 14.8953 101.112 17.3258 99.9345 20.1695C98.7566 23.0132 98.4485 26.1423 99.0491 29.1611C99.6493 32.18 101.132 34.9529 103.308 37.1295C105.485 39.3057 108.257 40.7881 111.276 41.3884C114.295 41.989 117.424 41.6809 120.268 40.5029C123.112 39.325 125.542 37.3303 127.252 34.7709C128.962 32.2119 129.875 29.203 129.875 26.125C129.875 21.9976 128.235 18.0392 125.317 15.1207C122.398 12.2021 118.44 10.5625 114.312 10.5625Z" fill="#FFFDFE"/>
<path d="M135.062 95.5857H119.5C118.124 95.5857 116.805 95.0392 115.832 94.0661C114.859 93.0934 114.312 91.774 114.312 90.3982C114.312 89.0224 114.859 87.703 115.832 86.7299C116.805 85.7572 118.124 85.2107 119.5 85.2107H135.062C137.814 85.2107 140.453 84.1174 142.399 82.1719C144.345 80.2261 145.437 77.5873 145.437 74.8357V69.285L132.209 64.0975C131.575 63.8458 130.997 63.472 130.508 62.9966C130.019 62.5215 129.628 61.9544 129.358 61.328C129.088 60.7018 128.945 60.0282 128.936 59.3462C128.926 58.6643 129.052 57.9874 129.304 57.3539C129.803 56.0767 130.786 55.0488 132.04 54.4947C133.294 53.9406 134.717 53.9054 135.996 54.3968L152.544 60.8814C153.51 61.2655 154.337 61.9312 154.92 62.7911C155.502 63.6513 155.813 64.6666 155.812 65.7057V74.7839C155.819 77.513 155.288 80.2168 154.248 82.7403C153.208 85.2638 151.681 87.5576 149.753 89.4899C147.826 91.4221 145.536 92.9553 143.015 94.0011C140.494 95.0472 137.792 95.5857 135.062 95.5857Z" fill="#FFFDFE"/>
</g>
<defs>
<clipPath id="clip0_135_35">
<rect width="156" height="156" fill="white"/>
</clipPath>
</defs>
</svg>
