<svg width="277" height="256" viewBox="0 0 277 256" fill="none" xmlns="http://www.w3.org/2000/svg">
<path d="M127.186 250.686C133.435 256.935 143.565 256.935 149.814 250.686L250.686 149.814C256.935 143.565 256.935 133.435 250.686 127.186L149.814 26.3137C143.565 20.0653 133.435 20.0653 127.186 26.3137L26.3137 127.186C20.0653 133.435 20.0653 143.565 26.3137 149.814L127.186 250.686Z" fill="black"/>
<path d="M277 87.5C277 39.1751 237.825 0 189.5 0C141.175 0 102 39.1751 102 87.5C102 135.825 141.175 175 189.5 175C237.825 175 277 135.825 277 87.5Z" fill="black"/>
<path d="M175 87.5C175 39.1751 135.825 0 87.5 0C39.1751 0 0 39.1751 0 87.5C0 135.825 39.1751 175 87.5 175C135.825 175 175 135.825 175 87.5Z" fill="black"/>
</svg>
