<svg width="64" height="64" viewBox="0 0 64 64" fill="none" xmlns="http://www.w3.org/2000/svg">
<path fill-rule="evenodd" clip-rule="evenodd" d="M46.3169 4.66669C53.2273 4.66669 58.8543 10.0923 58.8543 16.7616V47.2083C58.8543 53.894 53.2131 59.3334 46.2857 59.3334H32.4449C25.5343 59.3334 19.9101 53.9076 19.9101 47.2383V44.6635C19.9101 43.5319 20.8621 42.6135 22.0351 42.6135C23.2081 42.6135 24.1601 43.5319 24.1601 44.6635V47.2383C24.1601 51.6444 27.8774 55.2334 32.4449 55.2334H46.2857C50.8729 55.2334 54.6043 51.6363 54.6043 47.2083V16.7616C54.6043 12.3555 50.8841 8.76669 46.3169 8.76669H32.476C27.8917 8.76669 24.1601 12.3638 24.1601 16.7863V19.3364C24.1601 20.468 23.2081 21.3864 22.0351 21.3864C20.8621 21.3864 19.9101 20.468 19.9101 19.3364V16.7863C19.9101 10.1033 25.5486 4.66669 32.476 4.66669H46.3169ZM35.9448 22.5783L44.2435 30.5506C44.3109 30.6156 44.3737 30.6848 44.4315 30.7581L44.2437 30.5487C44.3568 30.6562 44.4558 30.7751 44.5397 30.9024C44.5569 30.9343 44.5762 30.9655 44.5947 30.9972C44.6271 31.0462 44.6544 31.0981 44.6794 31.1511C44.6936 31.1888 44.7099 31.2262 44.725 31.2641C44.7492 31.316 44.7678 31.3694 44.7843 31.4236C44.7938 31.4661 44.8052 31.5088 44.8151 31.5518C44.8306 31.6039 44.8406 31.6562 44.8485 31.7091C44.8485 31.7331 44.8517 31.7585 44.8544 31.7838C44.8659 31.8559 44.8698 31.9278 44.8698 32L44.8491 32.2159L44.8467 32.2781C44.8461 32.2827 44.8455 32.2873 44.8448 32.2919L44.8698 32C44.8698 32.1518 44.8524 32.302 44.8185 32.448C44.8052 32.4913 44.7938 32.5338 44.7811 32.5758C44.7678 32.6305 44.7492 32.6839 44.7282 32.7365C44.7099 32.7738 44.6936 32.8113 44.6762 32.8481C44.6544 32.9019 44.6271 32.9539 44.5974 33.0047C44.5762 33.0345 44.5569 33.0657 44.5367 33.0963C44.5063 33.1485 44.4702 33.198 44.432 33.246C44.4059 33.2743 44.3816 33.3033 44.3564 33.3317C44.3224 33.3735 44.2839 33.4131 44.2437 33.4515L35.9448 41.4191C35.5312 41.8182 34.9872 42.0176 34.446 42.0176C33.902 42.0176 33.3552 41.8182 32.9415 41.4136C32.1114 40.61 32.117 39.3144 32.9472 38.5163L37.5959 34.05H8.625C7.452 34.05 6.5 33.1316 6.5 32C6.5 30.8684 7.452 29.95 8.625 29.95H37.5959L32.9472 25.4811C32.117 24.6828 32.1114 23.3872 32.9415 22.5836C33.7717 21.78 35.1147 21.78 35.9448 22.5783Z" fill="#FFFDFE"/>
</svg>
