<svg width="74" height="74" viewBox="0 0 74 74" fill="none" xmlns="http://www.w3.org/2000/svg">
<path d="M55.6761 58.8374C55.6761 53.6801 51.9355 47.0299 46.0987 47.0299H26.9437C21.107 47.0299 17.3663 53.6801 17.3663 58.8374M7.78882 37.4776C7.78882 21.651 20.6528 8.82092 36.5212 8.82092C52.3898 8.82092 65.2536 21.651 65.2536 37.4776C65.2536 53.3044 52.3898 66.1344 36.5212 66.1344C20.6528 66.1344 7.78882 53.3044 7.78882 37.4776ZM46.0987 27.9254C46.0987 33.2011 41.8108 37.4776 36.5212 37.4776C31.2316 37.4776 26.9437 33.2011 26.9437 27.9254C26.9437 22.6499 31.2316 18.3732 36.5212 18.3732C41.8108 18.3732 46.0987 22.6499 46.0987 27.9254Z" stroke="#969696" stroke-width="4"/>
</svg>
