<svg width="64" height="64" viewBox="0 0 64 64" fill="none" xmlns="http://www.w3.org/2000/svg">
<g clip-path="url(#clip0_135_35)">
<path d="M32 44.7692C29.4744 44.7692 27.0056 44.0204 24.9057 42.6172C22.8058 41.2142 21.1692 39.2198 20.2027 36.8866C19.2363 34.5533 18.9834 31.9858 19.476 29.5088C19.9688 27.0319 21.185 24.7566 22.9708 22.9708C24.7566 21.1851 27.0319 19.9689 29.5088 19.4761C31.9858 18.9834 34.5533 19.2364 36.8866 20.2027C39.2198 21.1693 41.2141 22.8059 42.6171 24.9058C44.0203 27.0056 44.7692 29.4745 44.7692 32C44.7692 35.3866 43.4239 38.6346 41.0291 41.0292C38.6345 43.424 35.3866 44.7692 32 44.7692ZM32 23.4872C30.3163 23.4872 28.6704 23.9865 27.2705 24.9218C25.8706 25.8573 24.7794 27.1868 24.1352 28.7423C23.4908 30.2979 23.3222 32.0094 23.6507 33.6608C23.9792 35.3121 24.7899 36.8289 25.9805 38.0195C27.1711 39.21 28.6879 40.0209 30.3392 40.3493C31.9906 40.6778 33.7021 40.5092 35.2577 39.8649C36.8132 39.2205 38.1427 38.1294 39.0781 36.7295C40.0134 35.3295 40.5128 33.6836 40.5128 32C40.5128 29.7423 39.6159 27.577 38.0194 25.9806C36.4229 24.3841 34.2577 23.4872 32 23.4872Z" fill="#FFFDFE"/>
<path d="M42.6411 63.9231H21.359C19.1013 63.9231 16.936 63.0262 15.3396 61.4297C13.7431 59.8333 12.8462 57.668 12.8462 55.4103V49.9833C12.85 49.5608 12.9795 49.1488 13.2183 48.8001C13.4571 48.4514 13.7943 48.1817 14.187 48.0254L21.9337 44.9183C22.1963 44.8018 22.4797 44.7397 22.7668 44.7357C23.0541 44.7318 23.3392 44.786 23.6048 44.8952C23.8705 45.0043 24.1113 45.1661 24.3129 45.3709C24.5143 45.5754 24.6723 45.8188 24.7774 46.0862C24.8822 46.3536 24.9319 46.6395 24.9235 46.9266C24.9151 47.2137 24.8485 47.4962 24.7279 47.7569C24.6074 48.0176 24.4353 48.2512 24.222 48.4437C24.0089 48.6361 23.7589 48.7835 23.4872 48.8766L17.1026 51.4305V55.4103C17.1026 56.5391 17.551 57.6218 18.3493 58.42C19.1474 59.2183 20.2301 59.6667 21.359 59.6667H42.6411C43.7699 59.6667 44.8526 59.2183 45.6508 58.42C46.4491 57.6218 46.8975 56.5391 46.8975 55.4103V51.4305L40.5129 48.8766C39.9879 48.6678 39.5675 48.259 39.3439 47.7401C39.1204 47.2213 39.1123 46.635 39.3211 46.11C39.5299 45.5851 39.9388 45.1646 40.4576 44.9411C40.9764 44.7176 41.5629 44.7093 42.0877 44.9183L49.8343 48.0254C50.227 48.1817 50.5643 48.4514 50.803 48.8001C51.0418 49.1488 51.1713 49.5608 51.1751 49.9833V55.4103C51.1751 56.53 50.9543 57.6387 50.5252 58.6729C50.096 59.7071 49.467 60.6465 48.6743 61.4372C47.8816 62.228 46.9406 62.8547 45.9054 63.2812C44.8701 63.7078 43.7608 63.9259 42.6411 63.9231Z" fill="#FFFDFE"/>
<path d="M17.1025 21.359C14.9978 21.359 12.9406 20.7349 11.1906 19.5657C9.44071 18.3964 8.07682 16.7345 7.27142 14.7901C6.46604 12.8457 6.25531 10.7061 6.6659 8.64197C7.07649 6.57781 8.08993 4.68177 9.57811 3.19359C11.0663 1.70541 12.9624 0.691965 15.0265 0.281374C17.0906 -0.129216 19.2302 0.0815208 21.1746 0.886902C23.119 1.6923 24.7809 3.05619 25.9502 4.80609C27.1194 6.556 27.7435 8.61334 27.7435 10.7179C27.7435 12.1154 27.4682 13.4991 26.9335 14.7901C26.3987 16.0811 25.6149 17.2541 24.6268 18.2423C23.6387 19.2303 22.4657 20.0142 21.1746 20.5489C19.8836 21.0837 18.4999 21.359 17.1025 21.359ZM17.1025 4.33331C15.8397 4.33331 14.6053 4.70777 13.5554 5.40932C12.5054 6.11087 11.6871 7.10802 11.2038 8.27464C10.7206 9.44128 10.5942 10.725 10.8405 11.9635C11.0869 13.202 11.695 14.3396 12.5878 15.2326C13.4808 16.1254 14.6183 16.7336 15.8569 16.9798C17.0954 17.2262 18.3791 17.0998 19.5457 16.6166C20.7124 16.1333 21.7095 15.315 22.411 14.265C23.1126 13.2151 23.4871 11.9807 23.4871 10.7179C23.4871 9.02463 22.8143 7.40068 21.6171 6.20333C20.4197 5.00598 18.7958 4.33331 17.1025 4.33331Z" fill="#FFFDFE"/>
<path d="M14.9743 39.2146H8.58973C6.33199 39.2146 4.16672 38.3177 2.57025 36.7213C0.973789 35.1248 0.0769053 32.9595 0.0769053 30.7018V26.9774C0.0764967 26.5512 0.20408 26.1347 0.443134 25.7818C0.682187 25.4289 1.02169 25.1559 1.41768 24.9982L8.20665 22.338C8.72367 22.1327 9.30051 22.138 9.81364 22.3528C10.3268 22.5676 10.7354 22.9748 10.952 23.4872C11.0557 23.747 11.1071 24.0249 11.1033 24.3047C11.0995 24.5844 11.0406 24.8606 10.9299 25.1177C10.8192 25.3746 10.6589 25.6072 10.4582 25.8022C10.2575 25.9971 10.0203 26.1506 9.76025 26.2539L4.33332 28.4246V30.7018C4.33332 31.8307 4.78176 32.9132 5.57999 33.7115C6.37822 34.5097 7.46086 34.9582 8.58973 34.9582H14.9743C15.5388 34.9582 16.0801 35.1824 16.4793 35.5815C16.8784 35.9807 17.1025 36.522 17.1025 37.0864C17.1025 37.6509 16.8784 38.1921 16.4793 38.5912C16.0801 38.9904 15.5388 39.2146 14.9743 39.2146Z" fill="#FFFDFE"/>
<path d="M46.8974 21.359C44.7927 21.359 42.7355 20.7349 40.9855 19.5657C39.2357 18.3964 37.8717 16.7345 37.0663 14.7901C36.261 12.8457 36.0503 10.7061 36.4608 8.64197C36.8714 6.57781 37.8848 4.68177 39.373 3.19359C40.8612 1.70541 42.7573 0.691965 44.8215 0.281374C46.8855 -0.129216 49.0252 0.0815208 50.9695 0.886902C52.9139 1.6923 54.5758 3.05619 55.7451 4.80609C56.9143 6.556 57.5384 8.61334 57.5384 10.7179C57.5384 13.5401 56.4173 16.2466 54.4217 18.2423C52.4261 20.2378 49.7195 21.359 46.8974 21.359ZM46.8974 4.33331C45.6346 4.33331 44.4002 4.70777 43.3503 5.40932C42.3003 6.11087 41.482 7.10802 40.9987 8.27464C40.5155 9.44128 40.3891 10.725 40.6355 11.9635C40.8817 13.202 41.4899 14.3396 42.3827 15.2326C43.2757 16.1254 44.4132 16.7336 45.6518 16.9798C46.8903 17.2262 48.174 17.0998 49.3406 16.6166C50.5073 16.1333 51.5045 15.315 52.206 14.265C52.9075 13.2151 53.282 11.9807 53.282 10.7179C53.282 9.02463 52.6093 7.40068 51.412 6.20333C50.2146 5.00598 48.5907 4.33331 46.8974 4.33331Z" fill="#FFFDFE"/>
<path d="M55.4103 39.2147H49.0257C48.4612 39.2147 47.92 38.9905 47.5207 38.5912C47.1217 38.1922 46.8975 37.6509 46.8975 37.0864C46.8975 36.522 47.1217 35.9807 47.5207 35.5815C47.92 35.1824 48.4612 34.9582 49.0257 34.9582H55.4103C56.5391 34.9582 57.6218 34.5097 58.42 33.7116C59.2183 32.9133 59.6667 31.8307 59.6667 30.7018V28.4246L54.2397 26.2964C53.9797 26.1932 53.7426 26.0398 53.5418 25.8448C53.3412 25.6498 53.1809 25.4172 53.0701 25.1602C52.9594 24.9033 52.9006 24.6269 52.8967 24.3472C52.8929 24.0674 52.9443 23.7897 53.0479 23.5298C53.2524 23.0058 53.656 22.5841 54.1704 22.3568C54.6849 22.1295 55.2684 22.1151 55.7934 22.3166L62.5823 24.977C62.9784 25.1346 63.3178 25.4077 63.5568 25.7604C63.7959 26.1134 63.9235 26.5299 63.9231 26.9562V30.6806C63.926 31.8002 63.7078 32.9094 63.2812 33.9447C62.8547 34.98 62.228 35.9211 61.4374 36.7138C60.6465 37.5065 59.7071 38.1355 58.6729 38.5645C57.6387 38.9937 56.53 39.2147 55.4103 39.2147Z" fill="#FFFDFE"/>
</g>
<defs>
<clipPath id="clip0_135_35">
<rect width="64" height="64" fill="white"/>
</clipPath>
</defs>
</svg>
