<svg width="64" height="64" viewBox="0 0 64 64" fill="none" xmlns="http://www.w3.org/2000/svg">
<path d="M50.6761 53.8374C50.6761 48.6801 46.9355 42.0299 41.0987 42.0299H21.9437C16.107 42.0299 12.3663 48.6801 12.3663 53.8374M2.78882 32.4776C2.78882 16.651 15.6528 3.82092 31.5212 3.82092C47.3898 3.82092 60.2536 16.651 60.2536 32.4776C60.2536 48.3044 47.3898 61.1344 31.5212 61.1344C15.6528 61.1344 2.78882 48.3044 2.78882 32.4776ZM41.0987 22.9254C41.0987 28.2011 36.8108 32.4776 31.5212 32.4776C26.2316 32.4776 21.9437 28.2011 21.9437 22.9254C21.9437 17.6499 26.2316 13.3732 31.5212 13.3732C36.8108 13.3732 41.0987 17.6499 41.0987 22.9254Z" stroke="white" stroke-width="4"/>
</svg>
